<?xml version="1.0" encoding="UTF-8" standalone="no"?><!DOCTYPE svg PUBLIC "-//W3C//DTD SVG 1.1//EN" "http://www.w3.org/Graphics/SVG/1.1/DTD/svg11.dtd"><svg width="100%" height="100%" viewBox="0 0 876 243" version="1.1" xmlns="http://www.w3.org/2000/svg" xmlns:xlink="http://www.w3.org/1999/xlink" xml:space="preserve" xmlns:serif="http://www.serif.com/" style="fill-rule:evenodd;clip-rule:evenodd;stroke-linejoin:round;stroke-miterlimit:2;"><g><g><g><path d="M532.639,38.48c2.375,-0.001 29.095,0.027 31.47,-0.008c2.541,-0.037 4.513,-1.887 4.601,-4.247c0.093,-2.471 -1.761,-4.523 -4.412,-4.577c-4.805,-0.099 -33.956,-0.096 -38.762,-0.021c-1.334,0.021 -1.606,-0.333 -1.545,-1.645c0.659,-14.125 13.326,-26.79 27.445,-27.88c14.786,-1.142 25.76,7.449 30.583,17.694c1.567,3.33 2.39,6.859 2.602,10.543c0.058,1.013 0.178,10.438 0.15,11.562c-0.074,3.011 -0.09,6.025 -0.007,9.035c0.032,1.183 0.047,10.703 0.01,11.886c-0.087,2.72 -0.11,5.447 -0.003,8.165c0.051,1.302 -0.066,10.43 -0.101,11.724c-0.405,14.927 -13.254,27.821 -28.174,28.816c-16.722,1.116 -29.317,-11.143 -31.91,-23.598c-0.366,-1.761 -0.532,-3.54 -0.663,-5.333c-0.074,-1.015 0.21,-1.284 1.206,-1.275c4.75,0.045 33.845,0.048 38.597,0.009c2.972,-0.023 4.965,-1.835 4.985,-4.408c0.019,-2.449 -1.965,-4.443 -4.564,-4.463c-4.809,-0.037 -33.962,-0.045 -38.77,0.014c-1.155,0.014 -1.625,-0.214 -1.579,-1.496c0.101,-2.777 0.079,-5.562 0.007,-8.341c-0.027,-1.063 0.267,-1.385 1.352,-1.371c4.692,0.059 19.819,0.003 24.512,0.037c1.595,0.011 2.982,-0.408 4.038,-1.62c1.168,-1.341 1.469,-2.941 0.759,-4.538c-0.817,-1.837 -2.348,-2.804 -4.411,-2.805c-4.635,-0.003 -19.704,-0.066 -24.336,0.029c-1.474,0.03 -2.015,-0.257 -1.933,-1.864c0.151,-2.947 0.074,-5.909 0.025,-8.863c-0.015,-0.91 0.266,-1.198 1.18,-1.179c2.548,0.054 5.098,0.019 7.648,0.018" style="fill:url(#_Linear1);fill-rule:nonzero;"/><path d="M554.257,158.33c-9.728,0.001 -19.455,-0.001 -29.184,0.003c-1.221,0.001 -2.434,-0.036 -3.58,-0.531c-2.579,-1.115 -4.11,-3.906 -3.644,-6.644c0.453,-2.667 2.876,-4.905 5.702,-4.937c7.474,-0.084 14.95,-0.041 22.425,-0.061c2.494,-0.007 2.201,0.309 2.212,-2.227c0.014,-3.013 -0.023,-6.027 0.019,-9.04c0.014,-0.959 -0.187,-1.385 -1.285,-1.541c-19.087,-2.695 -32.751,-13.092 -41.77,-29.831c-4.175,-7.751 -5.61,-16.232 -5.678,-24.967c-0.03,-3.822 -0.064,-7.646 0.031,-11.466c0.074,-2.946 1.922,-5.294 4.448,-5.971c2.536,-0.68 5.189,0.341 6.699,2.538c0.87,1.265 0.979,2.683 0.995,4.147c0.052,4.75 -0.106,9.5 0.163,14.25c0.619,10.932 5.103,20.05 12.851,27.647c6.842,6.708 15.002,10.798 24.558,11.767c12.317,1.25 23.411,-1.749 32.84,-10.054c7.351,-6.475 12.284,-14.366 14.109,-24.082c0.581,-3.087 0.708,-6.209 0.751,-9.336c0.053,-3.88 -0.05,-7.768 0.134,-11.641c0.147,-3.105 2.834,-5.421 5.919,-5.446c2.988,-0.024 5.748,2.186 5.971,5.207c0.383,5.2 0.206,10.418 0.025,15.631c-0.234,6.728 -1.521,13.238 -4.396,19.323c-7.598,16.077 -19.744,26.839 -37.178,31.239c-1.902,0.48 -3.852,0.803 -5.798,1.057c-0.98,0.128 -1.242,0.512 -1.23,1.438c0.043,3.245 0.077,6.492 -0.013,9.735c-0.036,1.291 0.319,1.67 1.639,1.658c7.359,-0.065 14.719,-0.016 22.079,-0.042c1.874,-0.006 3.561,0.38 4.903,1.775c1.655,1.721 2.31,3.717 1.542,6.043c-0.772,2.341 -2.37,3.799 -4.827,4.204c-0.794,0.131 -1.614,0.148 -2.422,0.148c-9.67,0.01 -19.34,0.006 -29.01,0.007" style="fill:url(#_Linear2);fill-rule:nonzero;"/></g><text x="-10.676px" y="150.432px" style="font-family:'HiraginoSansGB-W6', 'Hiragino Sans GB', sans-serif;font-weight:600;font-size:166.667px;fill:url(#_Linear3);">E<tspan x="89.242px 239.62px 365.102px " y="150.432px 150.432px 150.432px ">MOT</tspan></text><text x="621.89px" y="153.618px" style="font-family:'HiraginoSansGB-W6', 'Hiragino Sans GB', sans-serif;font-weight:600;font-size:166.667px;fill:url(#_Linear4);">O<tspan x="747.882px " y="153.618px ">N</tspan></text></g><text x="-7.298px" y="241.46px" style="font-family:'Audiowide-Regular', 'Audiowide';font-size:69.444px;fill:url(#_Linear5);">M<tspan x="93.091px 180.557px 262.491px 294.106px 372.908px 409.418px 480.633px 515.821px 597.168px 628.783px 715.221px 794.072px " y="241.46px 241.46px 241.46px 241.46px 241.46px 241.46px 241.46px 241.46px 241.46px 241.46px 241.46px 241.46px ">USIC &amp; VIDEO</tspan></text><rect x="0" y="170.125" width="874.711" height="8.333" style="fill:url(#_Linear6);"/></g><defs><linearGradient id="_Linear1" x1="0" y1="0" x2="1" y2="0" gradientUnits="userSpaceOnUse" gradientTransform="matrix(-0.110518,-292.641,292.641,-0.110518,369.847,276.18)"><stop offset="0" style="stop-color:#0081d5;stop-opacity:1"/><stop offset="1" style="stop-color:#a133d5;stop-opacity:1"/></linearGradient><linearGradient id="_Linear2" x1="0" y1="0" x2="1" y2="0" gradientUnits="userSpaceOnUse" gradientTransform="matrix(-0.110518,-292.641,292.641,-0.110518,369.847,276.18)"><stop offset="0" style="stop-color:#0081d5;stop-opacity:1"/><stop offset="1" style="stop-color:#a133d5;stop-opacity:1"/></linearGradient><linearGradient id="_Linear3" x1="0" y1="0" x2="1" y2="0" gradientUnits="userSpaceOnUse" gradientTransform="matrix(-0.110518,-292.641,292.641,-0.110518,369.847,276.18)"><stop offset="0" style="stop-color:#0081d5;stop-opacity:1"/><stop offset="1" style="stop-color:#a133d5;stop-opacity:1"/></linearGradient><linearGradient id="_Linear4" x1="0" y1="0" x2="1" y2="0" gradientUnits="userSpaceOnUse" gradientTransform="matrix(-0.110518,-292.641,292.641,-0.110518,369.847,276.18)"><stop offset="0" style="stop-color:#0081d5;stop-opacity:1"/><stop offset="1" style="stop-color:#a133d5;stop-opacity:1"/></linearGradient><linearGradient id="_Linear5" x1="0" y1="0" x2="1" y2="0" gradientUnits="userSpaceOnUse" gradientTransform="matrix(-0.110518,-292.641,292.641,-0.110518,369.847,259.513)"><stop offset="0" style="stop-color:#0081d5;stop-opacity:1"/><stop offset="1" style="stop-color:#a133d5;stop-opacity:1"/></linearGradient><linearGradient id="_Linear6" x1="0" y1="0" x2="1" y2="0" gradientUnits="userSpaceOnUse" gradientTransform="matrix(-0.110518,-292.641,292.641,-0.110518,369.847,267.846)"><stop offset="0" style="stop-color:#0081d5;stop-opacity:0.4"/><stop offset="1" style="stop-color:#a133d5;stop-opacity:0.4"/></linearGradient></defs></svg>