<?xml version="1.0" encoding="UTF-8" standalone="no"?>
<!DOCTYPE svg PUBLIC "-//W3C//DTD SVG 1.1//EN" "http://www.w3.org/Graphics/SVG/1.1/DTD/svg11.dtd">
<svg width="100%" height="100%" viewBox="0 0 235 60" version="1.1" xmlns="http://www.w3.org/2000/svg" xmlns:xlink="http://www.w3.org/1999/xlink" xml:space="preserve" xmlns:serif="http://www.serif.com/" style="fill-rule:evenodd;clip-rule:evenodd;stroke-linecap:round;stroke-linejoin:round;stroke-miterlimit:1.5;">
    <g transform="matrix(1,0,0,1,-3746.62,-1336.3)">
        <g transform="matrix(0.622525,0,0,1,1318.75,1186.03)">
            <g transform="matrix(1.31715,0,0,0.81996,-1083.56,29.5144)">
                <g transform="matrix(0.724834,0,0,0.724834,1042.14,14.777)">
                    <text x="3862.3px" y="232.506px" style="font-family:'HiraKakuStd-W8', 'Hiragino Kaku Gothic Std', sans-serif;font-weight:800;font-size:60.704px;fill:rgb(33,33,33);">E<tspan x="3903.52px 3962.88px 4013.39px 4057.28px 4075.12px 4125.63px " y="232.506px 232.506px 232.506px 232.506px 232.506px 232.506px ">MOTION</tspan></text>
                </g>
                <g transform="matrix(1,0,0,1,0,-3)">
                    <g transform="matrix(0.995595,0,0,7.75,49.778,-11502.5)">
                        <rect x="3810" y="1509" width="227" height="4" style="fill:rgb(29,29,27);stroke:rgb(160,39,38);stroke-width:0.06px;"/>
                    </g>
                    <g transform="matrix(1,0,0,1,-24.9205,-1337.42)">
                        <text x="3877.46px" y="1554.58px" style="font-family:'SFProDisplay-Regular', 'SF Pro Display';font-size:26.831px;fill:white;">M<tspan x="3901.45px 3921.82px 3939.43px 3947.15px 3967.24px 3974.44px 3994.08px 4001.27px 4019.88px 4027.6px 4047.5px 4064.01px " y="1554.58px 1554.58px 1554.58px 1554.58px 1554.58px 1554.58px 1554.58px 1554.58px 1554.58px 1554.58px 1554.58px 1554.58px ">USIC &amp; VIDEO</tspan></text>
                    </g>
                </g>
                <g transform="matrix(0.158792,0,0,0.158792,3605.56,131.555)">
                    <g transform="matrix(1,0,0,1,1216.79,308.998)">
                        <path d="M0,-93.865C6.831,-93.867 83.664,-93.788 90.494,-93.888C97.8,-93.996 103.472,-99.315 103.726,-106.1C103.992,-113.207 98.661,-119.107 91.038,-119.263C77.222,-119.547 -6.606,-119.539 -20.424,-119.322C-24.262,-119.261 -25.044,-120.281 -24.868,-124.053C-22.973,-164.67 13.451,-201.088 54.053,-204.223C96.571,-207.508 128.128,-182.805 141.997,-153.344C146.503,-143.767 148.868,-133.62 149.477,-123.025C149.645,-120.114 149.989,-93.011 149.91,-89.778C149.696,-81.122 149.65,-72.453 149.889,-63.799C149.982,-60.396 150.024,-33.021 149.917,-29.618C149.669,-21.798 149.601,-13.956 149.908,-6.139C150.055,-2.397 149.72,23.853 149.619,27.572C148.455,70.495 111.506,107.573 68.603,110.436C20.517,113.643 -15.701,78.393 -23.156,42.576C-24.21,37.513 -24.687,32.397 -25.062,27.242C-25.276,24.324 -24.458,23.549 -21.596,23.575C-7.935,23.704 75.729,23.713 89.392,23.603C97.94,23.534 103.669,18.326 103.727,10.925C103.782,3.884 98.078,-1.849 90.603,-1.907C76.775,-2.013 -7.055,-2.036 -20.882,-1.867C-24.203,-1.827 -25.556,-2.483 -25.422,-6.168C-25.132,-14.154 -25.196,-22.163 -25.402,-30.155C-25.481,-33.211 -24.635,-34.136 -21.516,-34.096C-8.022,-33.928 35.476,-34.087 48.971,-33.99C53.557,-33.958 57.545,-35.163 60.583,-38.65C63.94,-42.505 64.807,-47.105 62.765,-51.697C60.415,-56.981 56.014,-59.761 50.08,-59.765C36.752,-59.774 -6.579,-59.955 -19.9,-59.68C-24.138,-59.594 -25.694,-60.42 -25.457,-65.041C-25.022,-73.516 -25.243,-82.031 -25.385,-90.526C-25.429,-93.144 -24.62,-93.973 -21.993,-93.918C-14.665,-93.761 -7.332,-93.863 0,-93.865" style="fill:rgb(29,29,27);fill-rule:nonzero;"/>
                    </g>
                    <g transform="matrix(1,0,0,1,1278.95,278.282)">
                        <path d="M0,281.488C-27.973,281.491 -55.946,281.486 -83.92,281.497C-87.433,281.499 -90.921,281.393 -94.215,279.969C-101.633,276.764 -106.033,268.736 -104.695,260.865C-103.391,253.194 -96.425,246.759 -88.299,246.668C-66.806,246.425 -45.308,246.55 -23.812,246.493C-16.643,246.473 -17.485,247.379 -17.452,240.089C-17.412,231.424 -17.52,222.757 -17.398,214.092C-17.359,211.336 -17.936,210.109 -21.094,209.663C-75.979,201.913 -115.272,172.014 -141.205,123.88C-153.21,101.593 -157.338,77.203 -157.533,52.086C-157.618,41.095 -157.718,30.099 -157.443,19.115C-157.231,10.643 -151.918,3.893 -144.654,1.945C-137.36,-0.011 -129.733,2.927 -125.39,9.243C-122.889,12.881 -122.576,16.958 -122.529,21.167C-122.378,34.826 -122.833,48.485 -122.06,62.146C-120.281,93.581 -107.386,119.801 -85.105,141.645C-65.43,160.935 -41.968,172.695 -14.489,175.483C20.931,179.077 52.833,170.453 79.947,146.571C101.084,127.953 115.269,105.261 120.518,77.323C122.187,68.445 122.553,59.469 122.676,50.477C122.83,39.318 122.532,28.14 123.062,17.001C123.486,8.072 131.211,1.413 140.082,1.341C148.674,1.271 156.61,7.627 157.251,16.314C158.354,31.268 157.846,46.272 157.325,61.261C156.652,80.608 152.95,99.33 144.682,116.827C122.836,163.058 87.909,194.004 37.775,206.656C32.307,208.036 26.699,208.967 21.103,209.696C18.284,210.063 17.532,211.169 17.567,213.831C17.69,223.162 17.788,232.5 17.529,241.824C17.426,245.538 18.445,246.626 22.241,246.592C43.403,246.405 64.568,246.546 85.732,246.472C91.12,246.454 95.971,247.564 99.829,251.576C104.589,256.526 106.473,262.264 104.265,268.954C102.043,275.684 97.45,279.876 90.384,281.041C88.101,281.417 85.744,281.466 83.42,281.467C55.614,281.495 27.807,281.485 0,281.488" style="fill:rgb(30,30,28);fill-rule:nonzero;"/>
                    </g>
                </g>
            </g>
        </g>
    </g>
</svg>
